<svg width="338" height="104" viewBox="0 0 338 104" fill="none" xmlns="http://www.w3.org/2000/svg">
<path d="M338 0.515106H299.312V16.4754H338V0.515106Z" fill="#1FEEBF"/>
<path d="M315.971 21.8451H299.307V38.5096H315.971V21.8451Z" fill="#1FEEBF"/>
<path d="M338 21.8451H321.335V38.5096H338V21.8451Z" fill="#1FEEBF"/>
<path d="M91.7457 17.7628C75.8734 17.7628 62.9555 30.6807 62.9555 46.553C62.9555 62.4253 75.8734 75.3432 91.7457 75.3432C107.618 75.3432 120.536 62.4253 120.536 46.553C120.536 30.6807 107.618 17.7628 91.7457 17.7628ZM91.7457 60.3677C84.1204 60.3677 77.9365 54.1783 77.9365 46.5585C77.9365 38.9387 84.1314 32.7493 91.7457 32.7493C99.36 32.7493 105.56 38.9442 105.56 46.5585C105.56 54.1728 99.3655 60.3677 91.7457 60.3677Z" fill="white"/>
<path d="M264.751 18.346C258.204 18.346 252.18 20.5632 247.36 24.2823C247.338 24.2658 247.316 24.2493 247.294 24.2328C242.827 20.7997 225.706 11.634 210.472 26.8681L210.372 74.2924H225.227V34.0532C226.641 33.4591 228.39 33.1785 229.958 33.1785C237.512 33.1785 243.641 39.3128 243.641 46.8611V59.2783C243.641 67.5528 250.199 74.2649 258.485 74.2649V46.8446C258.485 43.0264 257.72 39.3843 256.355 36.0558C258.677 34.2458 261.587 33.1675 264.751 33.1675C272.305 33.1675 278.434 39.3018 278.434 46.8501V74.2924H293.277V46.8501C293.272 31.1264 280.475 18.335 264.751 18.335V18.346Z" fill="white"/>
<path d="M111.497 0.515106V16.4754H126.555V59.9826C126.555 68.257 133.113 74.9691 141.398 74.9691V16.4754H150.041C158.332 16.4754 165.22 9.23524 165.22 0.515106H111.497Z" fill="white"/>
<path d="M176.235 17.7628C160.362 17.7628 147.445 30.6807 147.445 46.553C147.445 62.4253 160.362 75.3432 176.235 75.3432C192.107 75.3432 205.025 62.4253 205.025 46.553C205.025 30.6807 192.107 17.7628 176.235 17.7628ZM176.235 60.3677C168.609 60.3677 162.415 54.1783 162.415 46.5585C162.415 38.9387 168.609 32.7493 176.235 32.7493C183.86 32.7493 190.044 38.9442 190.044 46.5585C190.044 54.1728 183.849 60.3677 176.235 60.3677Z" fill="white"/>
<path d="M28.7902 17.7903C12.9179 17.7903 0 30.7137 0 46.586C0 62.4583 12.9179 75.3762 28.7902 75.3762C33.8132 75.3762 38.4676 73.9458 42.5939 71.7011V74.2484C42.5939 81.8627 36.399 88.0575 28.7792 88.0575C27.4588 88.0575 26.1824 87.8705 24.9775 87.5239C24.961 87.5239 24.95 87.5184 24.9335 87.5129C24.1468 87.2818 23.3821 86.9902 22.6613 86.6271C20.1361 85.4222 18.1225 83.8928 13.6386 83.8928C8.03242 83.8928 3.62009 88.1346 3.54857 88.2061H3.53757C6.73403 94.0158 15.9713 103.209 28.7792 103.028C28.7957 103.028 28.8177 103.028 28.8342 103.028C44.2058 103.011 56.7881 90.8909 57.5529 75.7118L57.5914 46.575C57.5914 30.7027 44.6735 17.7848 28.8012 17.7848L28.7902 17.7903ZM28.7902 60.3952C21.1649 60.3952 14.9755 54.2003 14.9755 46.586C14.9755 38.9717 21.1704 32.7714 28.7902 32.7714C36.41 32.7714 42.5994 38.9662 42.5994 46.586C42.5994 54.2058 36.4045 60.3952 28.7902 60.3952Z" fill="white"/>
</svg>
